Monsieur Hulot has to contact an American official in Paris, but he gets lost in the maze of modern architecture which is filled with the latest technical gadgets.


Director: Jacques Tati
Stars: Jacques Tati, Barbara Dennek, Rita Maiden

Format                                   : MPEG-4
Format profile                           : Base Media
Codec ID                                 : isom
File size                                : 1.45 GiB
Duration                                 : 2h 4mn
Overall bit rate mode                    : Variable
Overall bit rate                         : 1 672 Kbps
Movie name                               : Playtime*1967 /antusyrzhuk
Performer                                : Jacques Tati
Genre                                    : Comedy
Recorded date                            : 1967
Encoded date                             : UTC 2013-02-27 10:38:07
Tagged date                              : UTC 2013-02-27 10:38:07
Writing application                      : My MP4Box GUI 0.6.0.6

Video
ID                                       : 1
Format                                   : AVC
Format/Info                              : Advanced Video Codec
Format profile                           : High@L3.1
Format settings, CABAC                   : Yes
Format settings, ReFrames                : 6 frames
Codec ID                                 : avc1
Codec ID/Info                            : Advanced Video Coding
Duration                                 : 2h 4mn
Bit rate                                 : 1 538 Kbps
Maximum bit rate                         : 9 633 Kbps
Width                                    : 960 pixels
Height                                   : 516 pixels
Display aspect ratio                     : 1.85:1
Frame rate mode                          : Constant
Frame rate                               : 23.976 fps
Color space                              : YUV
Chroma subsampling                       : 4:2:0
Bit depth                                : 8 bits
Scan type                                : Progressive
Bits/(Pixel*Frame)                       : 0.129
Stream size                              : 1.34 GiB (92%)
Title                                    : Play.Time.1967.720p.Bluray.mkv.264
Writing library                          : x264 core 129 r2245 bc13772
Encoding settings                        : cabac=1 / ref=6 / deblock=1:-1:-1 / analyse=0x3:0x133 / me=umh / subme=8 / psy=1 / psy_rd=1.00:0.15 / mixed_ref=1 / me_range=16 / chroma_me=1 / trellis=2 / 8x8dct=1 / cqm=0 / deadzone=21,11 / fast_pskip=1 / chroma_qp_offset=-3 / threads=3 / lookahead_threads=1 / sliced_threads=0 / nr=0 / decimate=1 / interlaced=0 / bluray_compat=0 / constrained_intra=0 / bframes=3 / b_pyramid=2 / b_adapt=2 / b_bias=0 / direct=3 / weightb=1 / open_gop=0 / weightp=2 / keyint=240 / keyint_min=23 / scenecut=30 / intra_refresh=0 / rc_lookahead=60 / rc=2pass / mbtree=1 / bitrate=1538 / ratetol=1.0 / qcomp=0.60 / qpmin=0 / qpmax=69 / qpstep=4 / cplxblur=20.0 / qblur=0.5 / ip_ratio=1.40 / aq=1:1.00
Encoded date                             : UTC 2013-02-27 10:38:07
Tagged date                              : UTC 2013-02-27 10:39:06

Audio
ID                                       : 2
Format                                   : AAC
Format/Info                              : Advanced Audio Codec
Format profile                           : LC
Codec ID                                 : 40
Duration                                 : 2h 4mn
Bit rate mode                            : Variable
Bit rate                                 : 129 Kbps
Maximum bit rate                         : 171 Kbps
Channel(s)                               : 2 channels
Channel positions                        : Front: L R
Sampling rate                            : 48.0 KHz
Compression mode                         : Lossy
Stream size                              : 115 MiB (8%)
Title                                    : Play.Time.1967.720p.Bluray - [2] French.m4a
Language                                 : French
Encoded date                             : UTC 2013-02-27 10:39:01
Tagged date                              : UTC 2013-02-27 10:39:06

Screenshots: 
http://imageshack.us/a/img20/33/16569533.png 
http://imageshack.us/a/img14/2531/14587650.png 
http://imageshack.us/a/img15/3456/17084579.png 
http://imageshack.us/a/img805/9308/18409686.png 
http://imageshack.us/a/img152/5371/84965570.png 
http://imageshack.us/a/img844/205/77008372.png 
http://imageshack.us/a/img23/9210/23651684.png 
http://imageshack.us/a/img39/4756/16824076.png

English subtitles here http://subscene.com/subtitles/playtime/english/253233